<svg viewBox="0 0 1120 300" xmlns="http://www.w3.org/2000/svg" font-family="IBM Plex Mono,monospace"><line x1="40" y1="150" x2="1090" y2="150" stroke="rgba(242,234,214,.3)" stroke-width="1"/><line x1="40.0" y1="150" x2="40.0" y2="156" stroke="#F2EAD6" stroke-width="2.6" opacity=".8"/><line x1="44.1" y1="150" x2="44.1" y2="179" stroke="#F2EAD6" stroke-width="2.6" opacity=".8"/><line x1="48.2" y1="150" x2="48.2" y2="189" stroke="#F2EAD6" stroke-width="2.6" opacity=".8"/><line x1="52.3" y1="150" x2="52.3" y2="167" stroke="#F2EAD6" stroke-width="2.6" opacity=".8"/><line x1="56.3" y1="150" x2="56.3" y2="179" stroke="#F2EAD6" stroke-width="2.6" opacity=".8"/><line x1="60.4" y1="150" x2="60.4" y2="165" stroke="#F2EAD6" stroke-width="2.6" opacity=".8"/><line x1="64.5" y1="150" x2="64.5" y2="169" stroke="#F2EAD6" stroke-width="2.6" opacity=".8"/><line x1="68.6" y1="150" x2="68.6" y2="135" stroke="#9CB6C9" stroke-width="2.6" opacity=".85"/><line x1="72.7" y1="150" x2="72.7" y2="213" stroke="#F2EAD6" stroke-width="2.6" opacity=".8"/><line x1="76.8" y1="150" x2="76.8" y2="230" stroke="#F2EAD6" stroke-width="2.6" opacity=".8"/><line x1="80.9" y1="150" x2="80.9" y2="169" stroke="#F2EAD6" stroke-width="2.6" opacity=".8"/><line x1="84.9" y1="150" x2="84.9" y2="185" stroke="#F2EAD6" stroke-width="2.6" opacity=".8"/><line x1="89.0" y1="150" x2="89.0" y2="184" stroke="#F2EAD6" stroke-width="2.6" opacity=".8"/><line x1="93.1" y1="150" x2="93.1" y2="131" stroke="#9CB6C9" stroke-width="2.6" opacity=".85"/><line x1="97.2" y1="150" x2="97.2" y2="163" stroke="#F2EAD6" stroke-width="2.6" opacity=".8"/><line x1="101.3" y1="150" x2="101.3" y2="152" stroke="#F2EAD6" stroke-width="2.6" opacity=".8"/><line x1="105.4" y1="150" x2="105.4" y2="154" stroke="#F2EAD6" stroke-width="2.6" opacity=".8"/><line x1="109.5" y1="150" x2="109.5" y2="145" stroke="#9CB6C9" stroke-width="2.6" opacity=".85"/><line x1="113.5" y1="150" x2="113.5" y2="144" stroke="#9CB6C9" stroke-width="2.6" opacity=".85"/><line x1="117.6" y1="150" x2="117.6" y2="159" stroke="#F2EAD6" stroke-width="2.6" opacity=".8"/><line x1="121.7" y1="150" x2="121.7" y2="179" stroke="#F2EAD6" stroke-width="2.6" opacity=".8"/><line x1="125.8" y1="150" x2="125.8" y2="164" stroke="#F2EAD6" stroke-width="2.6" opacity=".8"/><line x1="129.9" y1="150" x2="129.9" y2="166" stroke="#F2EAD6" stroke-width="2.6" opacity=".8"/><line x1="134.0" y1="150" x2="134.0" y2="108" stroke="#9CB6C9" stroke-width="2.6" opacity=".85"/><line x1="138.1" y1="150" x2="138.1" y2="132" stroke="#9CB6C9" stroke-width="2.6" opacity=".85"/><line x1="142.1" y1="150" x2="142.1" y2="116" stroke="#9CB6C9" stroke-width="2.6" opacity=".85"/><line x1="146.2" y1="150" x2="146.2" y2="141" stroke="#9CB6C9" stroke-width="2.6" opacity=".85"/><line x1="150.3" y1="150" x2="150.3" y2="140" stroke="#9CB6C9" stroke-width="2.6" opacity=".85"/><line x1="154.4" y1="150" x2="154.4" y2="140" stroke="#9CB6C9" stroke-width="2.6" opacity=".85"/><line x1="158.5" y1="150" x2="158.5" y2="124" stroke="#9CB6C9" stroke-width="2.6" opacity=".85"/><line x1="162.6" y1="150" x2="162.6" y2="113" stroke="#9CB6C9" stroke-width="2.6" opacity=".85"/><line x1="166.7" y1="150" x2="166.7" y2="134" stroke="#9CB6C9" stroke-width="2.6" opacity=".85"/><line x1="170.7" y1="150" x2="170.7" y2="151" stroke="#F2EAD6" stroke-width="2.6" opacity=".8"/><line x1="174.8" y1="150" x2="174.8" y2="124" stroke="#9CB6C9" stroke-width="2.6" opacity=".85"/><line x1="178.9" y1="150" x2="178.9" y2="123" stroke="#9CB6C9" stroke-width="2.6" opacity=".85"/><line x1="183.0" y1="150" x2="183.0" y2="163" stroke="#F2EAD6" stroke-width="2.6" opacity=".8"/><line x1="187.1" y1="150" x2="187.1" y2="120" stroke="#9CB6C9" stroke-width="2.6" opacity=".85"/><line x1="191.2" y1="150" x2="191.2" y2="164" stroke="#F2EAD6" stroke-width="2.6" opacity=".8"/><line x1="195.3" y1="150" x2="195.3" y2="151" stroke="#F2EAD6" stroke-width="2.6" opacity=".8"/><line x1="199.3" y1="150" x2="199.3" y2="129" stroke="#9CB6C9" stroke-width="2.6" opacity=".85"/><line x1="203.4" y1="150" x2="203.4" y2="156" stroke="#F2EAD6" stroke-width="2.6" opacity=".8"/><line x1="207.5" y1="150" x2="207.5" y2="171" stroke="#F2EAD6" stroke-width="2.6" opacity=".8"/><circle cx="211.6" cy="150" r="3.2" fill="#E8A93A" opacity="0"/><circle cx="211.6" cy="150" r="3.2" fill="#C26B7E"/><line x1="215.7" y1="150" x2="215.7" y2="144" stroke="#9CB6C9" stroke-width="2.6" opacity=".85"/><line x1="219.8" y1="150" x2="219.8" y2="148" stroke="#9CB6C9" stroke-width="2.6" opacity=".85"/><line x1="223.9" y1="150" x2="223.9" y2="149" stroke="#9CB6C9" stroke-width="2.6" opacity=".85"/><line x1="227.9" y1="150" x2="227.9" y2="120" stroke="#9CB6C9" stroke-width="2.6" opacity=".85"/><line x1="232.0" y1="150" x2="232.0" y2="126" stroke="#9CB6C9" stroke-width="2.6" opacity=".85"/><line x1="236.1" y1="150" x2="236.1" y2="151" stroke="#F2EAD6" stroke-width="2.6" opacity=".8"/><line x1="240.2" y1="150" x2="240.2" y2="139" stroke="#9CB6C9" stroke-width="2.6" opacity=".85"/><line x1="244.3" y1="150" x2="244.3" y2="148" stroke="#9CB6C9" stroke-width="2.6" opacity=".85"/><line x1="248.4" y1="150" x2="248.4" y2="121" stroke="#9CB6C9" stroke-width="2.6" opacity=".85"/><line x1="252.5" y1="150" x2="252.5" y2="184" stroke="#F2EAD6" stroke-width="2.6" opacity=".8"/><line x1="256.5" y1="150" x2="256.5" y2="140" stroke="#9CB6C9" stroke-width="2.6" opacity=".85"/><line x1="260.6" y1="150" x2="260.6" y2="182" stroke="#F2EAD6" stroke-width="2.6" opacity=".8"/><line x1="264.7" y1="150" x2="264.7" y2="143" stroke="#9CB6C9" stroke-width="2.6" opacity=".85"/><line x1="268.8" y1="150" x2="268.8" y2="140" stroke="#9CB6C9" stroke-width="2.6" opacity=".85"/><line x1="272.9" y1="150" x2="272.9" y2="212" stroke="#F2EAD6" stroke-width="2.6" opacity=".8"/><line x1="277.0" y1="150" x2="277.0" y2="167" stroke="#F2EAD6" stroke-width="2.6" opacity=".8"/><line x1="281.1" y1="150" x2="281.1" y2="167" stroke="#F2EAD6" stroke-width="2.6" opacity=".8"/><line x1="285.1" y1="150" x2="285.1" y2="102" stroke="#9CB6C9" stroke-width="2.6" opacity=".85"/><line x1="289.2" y1="150" x2="289.2" y2="172" stroke="#F2EAD6" stroke-width="2.6" opacity=".8"/><line x1="293.3" y1="150" x2="293.3" y2="128" stroke="#9CB6C9" stroke-width="2.6" opacity=".85"/><line x1="297.4" y1="150" x2="297.4" y2="125" stroke="#9CB6C9" stroke-width="2.6" opacity=".85"/><line x1="301.5" y1="150" x2="301.5" y2="138" stroke="#9CB6C9" stroke-width="2.6" opacity=".85"/><line x1="305.6" y1="150" x2="305.6" y2="156" stroke="#F2EAD6" stroke-width="2.6" opacity=".8"/><line x1="309.6" y1="150" x2="309.6" y2="145" stroke="#9CB6C9" stroke-width="2.6" opacity=".85"/><line x1="313.7" y1="150" x2="313.7" y2="173" stroke="#F2EAD6" stroke-width="2.6" opacity=".8"/><circle cx="317.8" cy="150" r="3.2" fill="#E8A93A" opacity="0"/><circle cx="317.8" cy="150" r="3.2" fill="#C26B7E"/><line x1="321.9" y1="150" x2="321.9" y2="172" stroke="#F2EAD6" stroke-width="2.6" opacity=".8"/><line x1="326.0" y1="150" x2="326.0" y2="161" stroke="#F2EAD6" stroke-width="2.6" opacity=".8"/><line x1="330.1" y1="150" x2="330.1" y2="163" stroke="#F2EAD6" stroke-width="2.6" opacity=".8"/><line x1="334.2" y1="150" x2="334.2" y2="131" stroke="#9CB6C9" stroke-width="2.6" opacity=".85"/><line x1="338.2" y1="150" x2="338.2" y2="195" stroke="#F2EAD6" stroke-width="2.6" opacity=".8"/><line x1="342.3" y1="150" x2="342.3" y2="139" stroke="#9CB6C9" stroke-width="2.6" opacity=".85"/><line x1="346.4" y1="150" x2="346.4" y2="153" stroke="#F2EAD6" stroke-width="2.6" opacity=".8"/><line x1="350.5" y1="150" x2="350.5" y2="132" stroke="#9CB6C9" stroke-width="2.6" opacity=".85"/><line x1="354.6" y1="150" x2="354.6" y2="177" stroke="#F2EAD6" stroke-width="2.6" opacity=".8"/><line x1="358.7" y1="150" x2="358.7" y2="146" stroke="#9CB6C9" stroke-width="2.6" opacity=".85"/><line x1="362.8" y1="150" x2="362.8" y2="171" stroke="#F2EAD6" stroke-width="2.6" opacity=".8"/><line x1="366.8" y1="150" x2="366.8" y2="135" stroke="#9CB6C9" stroke-width="2.6" opacity=".85"/><line x1="370.9" y1="150" x2="370.9" y2="206" stroke="#F2EAD6" stroke-width="2.6" opacity=".8"/><line x1="375.0" y1="150" x2="375.0" y2="69" stroke="#9CB6C9" stroke-width="2.6" opacity=".85"/><line x1="379.1" y1="150" x2="379.1" y2="132" stroke="#9CB6C9" stroke-width="2.6" opacity=".85"/><line x1="383.2" y1="150" x2="383.2" y2="108" stroke="#9CB6C9" stroke-width="2.6" opacity=".85"/><line x1="387.3" y1="150" x2="387.3" y2="81" stroke="#9CB6C9" stroke-width="2.6" opacity=".85"/><line x1="391.4" y1="150" x2="391.4" y2="154" stroke="#F2EAD6" stroke-width="2.6" opacity=".8"/><line x1="395.4" y1="150" x2="395.4" y2="158" stroke="#F2EAD6" stroke-width="2.6" opacity=".8"/><line x1="399.5" y1="150" x2="399.5" y2="178" stroke="#F2EAD6" stroke-width="2.6" opacity=".8"/><line x1="403.6" y1="150" x2="403.6" y2="123" stroke="#9CB6C9" stroke-width="2.6" opacity=".85"/><line x1="407.7" y1="150" x2="407.7" y2="156" stroke="#F2EAD6" stroke-width="2.6" opacity=".8"/><line x1="411.8" y1="150" x2="411.8" y2="149" stroke="#9CB6C9" stroke-width="2.6" opacity=".85"/><line x1="415.9" y1="150" x2="415.9" y2="175" stroke="#F2EAD6" stroke-width="2.6" opacity=".8"/><line x1="420.0" y1="150" x2="420.0" y2="141" stroke="#9CB6C9" stroke-width="2.6" opacity=".85"/><line x1="424.0" y1="150" x2="424.0" y2="135" stroke="#9CB6C9" stroke-width="2.6" opacity=".85"/><line x1="428.1" y1="150" x2="428.1" y2="168" stroke="#F2EAD6" stroke-width="2.6" opacity=".8"/><line x1="432.2" y1="150" x2="432.2" y2="136" stroke="#9CB6C9" stroke-width="2.6" opacity=".85"/><line x1="436.3" y1="150" x2="436.3" y2="186" stroke="#F2EAD6" stroke-width="2.6" opacity=".8"/><line x1="440.4" y1="150" x2="440.4" y2="184" stroke="#F2EAD6" stroke-width="2.6" opacity=".8"/><line x1="444.5" y1="150" x2="444.5" y2="136" stroke="#9CB6C9" stroke-width="2.6" opacity=".85"/><line x1="448.6" y1="150" x2="448.6" y2="134" stroke="#9CB6C9" stroke-width="2.6" opacity=".85"/><line x1="452.6" y1="150" x2="452.6" y2="148" stroke="#9CB6C9" stroke-width="2.6" opacity=".85"/><line x1="456.7" y1="150" x2="456.7" y2="136" stroke="#9CB6C9" stroke-width="2.6" opacity=".85"/><line x1="460.8" y1="150" x2="460.8" y2="175" stroke="#F2EAD6" stroke-width="2.6" opacity=".8"/><line x1="464.9" y1="150" x2="464.9" y2="58" stroke="#9CB6C9" stroke-width="2.6" opacity=".85"/><line x1="469.0" y1="150" x2="469.0" y2="121" stroke="#9CB6C9" stroke-width="2.6" opacity=".85"/><line x1="473.1" y1="150" x2="473.1" y2="173" stroke="#F2EAD6" stroke-width="2.6" opacity=".8"/><line x1="477.2" y1="150" x2="477.2" y2="144" stroke="#9CB6C9" stroke-width="2.6" opacity=".85"/><line x1="481.2" y1="150" x2="481.2" y2="141" stroke="#9CB6C9" stroke-width="2.6" opacity=".85"/><line x1="485.3" y1="150" x2="485.3" y2="202" stroke="#F2EAD6" stroke-width="2.6" opacity=".8"/><line x1="489.4" y1="150" x2="489.4" y2="145" stroke="#9CB6C9" stroke-width="2.6" opacity=".85"/><line x1="493.5" y1="150" x2="493.5" y2="174" stroke="#F2EAD6" stroke-width="2.6" opacity=".8"/><line x1="497.6" y1="150" x2="497.6" y2="152" stroke="#F2EAD6" stroke-width="2.6" opacity=".8"/><line x1="501.7" y1="150" x2="501.7" y2="141" stroke="#9CB6C9" stroke-width="2.6" opacity=".85"/><line x1="505.8" y1="150" x2="505.8" y2="122" stroke="#9CB6C9" stroke-width="2.6" opacity=".85"/><line x1="509.8" y1="150" x2="509.8" y2="153" stroke="#F2EAD6" stroke-width="2.6" opacity=".8"/><line x1="513.9" y1="150" x2="513.9" y2="140" stroke="#9CB6C9" stroke-width="2.6" opacity=".85"/><line x1="518.0" y1="150" x2="518.0" y2="184" stroke="#F2EAD6" stroke-width="2.6" opacity=".8"/><line x1="522.1" y1="150" x2="522.1" y2="163" stroke="#F2EAD6" stroke-width="2.6" opacity=".8"/><line x1="526.2" y1="150" x2="526.2" y2="196" stroke="#F2EAD6" stroke-width="2.6" opacity=".8"/><line x1="530.3" y1="150" x2="530.3" y2="131" stroke="#9CB6C9" stroke-width="2.6" opacity=".85"/><line x1="534.4" y1="150" x2="534.4" y2="157" stroke="#F2EAD6" stroke-width="2.6" opacity=".8"/><line x1="538.4" y1="150" x2="538.4" y2="166" stroke="#F2EAD6" stroke-width="2.6" opacity=".8"/><line x1="542.5" y1="150" x2="542.5" y2="158" stroke="#F2EAD6" stroke-width="2.6" opacity=".8"/><line x1="546.6" y1="150" x2="546.6" y2="173" stroke="#F2EAD6" stroke-width="2.6" opacity=".8"/><line x1="550.7" y1="150" x2="550.7" y2="184" stroke="#F2EAD6" stroke-width="2.6" opacity=".8"/><line x1="554.8" y1="150" x2="554.8" y2="111" stroke="#9CB6C9" stroke-width="2.6" opacity=".85"/><line x1="558.9" y1="150" x2="558.9" y2="138" stroke="#9CB6C9" stroke-width="2.6" opacity=".85"/><line x1="563.0" y1="150" x2="563.0" y2="184" stroke="#F2EAD6" stroke-width="2.6" opacity=".8"/><line x1="567.0" y1="150" x2="567.0" y2="217" stroke="#F2EAD6" stroke-width="2.6" opacity=".8"/><line x1="571.1" y1="150" x2="571.1" y2="167" stroke="#F2EAD6" stroke-width="2.6" opacity=".8"/><line x1="575.2" y1="150" x2="575.2" y2="121" stroke="#9CB6C9" stroke-width="2.6" opacity=".85"/><line x1="579.3" y1="150" x2="579.3" y2="160" stroke="#F2EAD6" stroke-width="2.6" opacity=".8"/><line x1="583.4" y1="150" x2="583.4" y2="184" stroke="#F2EAD6" stroke-width="2.6" opacity=".8"/><line x1="587.5" y1="150" x2="587.5" y2="140" stroke="#9CB6C9" stroke-width="2.6" opacity=".85"/><line x1="591.6" y1="150" x2="591.6" y2="135" stroke="#9CB6C9" stroke-width="2.6" opacity=".85"/><line x1="595.6" y1="150" x2="595.6" y2="165" stroke="#F2EAD6" stroke-width="2.6" opacity=".8"/><line x1="599.7" y1="150" x2="599.7" y2="111" stroke="#9CB6C9" stroke-width="2.6" opacity=".85"/><line x1="603.8" y1="150" x2="603.8" y2="152" stroke="#F2EAD6" stroke-width="2.6" opacity=".8"/><line x1="607.9" y1="150" x2="607.9" y2="167" stroke="#F2EAD6" stroke-width="2.6" opacity=".8"/><circle cx="612.0" cy="150" r="3.2" fill="#E8A93A" opacity="0"/><circle cx="612.0" cy="150" r="3.2" fill="#C26B7E"/><line x1="616.1" y1="150" x2="616.1" y2="132" stroke="#9CB6C9" stroke-width="2.6" opacity=".85"/><line x1="620.2" y1="150" x2="620.2" y2="173" stroke="#F2EAD6" stroke-width="2.6" opacity=".8"/><line x1="624.2" y1="150" x2="624.2" y2="140" stroke="#9CB6C9" stroke-width="2.6" opacity=".85"/><line x1="628.3" y1="150" x2="628.3" y2="144" stroke="#9CB6C9" stroke-width="2.6" opacity=".85"/><line x1="632.4" y1="150" x2="632.4" y2="173" stroke="#F2EAD6" stroke-width="2.6" opacity=".8"/><line x1="636.5" y1="150" x2="636.5" y2="119" stroke="#9CB6C9" stroke-width="2.6" opacity=".85"/><line x1="640.6" y1="150" x2="640.6" y2="116" stroke="#9CB6C9" stroke-width="2.6" opacity=".85"/><line x1="644.7" y1="150" x2="644.7" y2="209" stroke="#F2EAD6" stroke-width="2.6" opacity=".8"/><line x1="648.8" y1="150" x2="648.8" y2="141" stroke="#9CB6C9" stroke-width="2.6" opacity=".85"/><line x1="652.8" y1="150" x2="652.8" y2="117" stroke="#9CB6C9" stroke-width="2.6" opacity=".85"/><line x1="656.9" y1="150" x2="656.9" y2="171" stroke="#F2EAD6" stroke-width="2.6" opacity=".8"/><line x1="661.0" y1="150" x2="661.0" y2="221" stroke="#F2EAD6" stroke-width="2.6" opacity=".8"/><line x1="665.1" y1="150" x2="665.1" y2="159" stroke="#F2EAD6" stroke-width="2.6" opacity=".8"/><line x1="669.2" y1="150" x2="669.2" y2="141" stroke="#9CB6C9" stroke-width="2.6" opacity=".85"/><line x1="673.3" y1="150" x2="673.3" y2="228" stroke="#F2EAD6" stroke-width="2.6" opacity=".8"/><line x1="677.4" y1="150" x2="677.4" y2="133" stroke="#9CB6C9" stroke-width="2.6" opacity=".85"/><circle cx="681.4" cy="150" r="3.2" fill="#E8A93A" opacity="0"/><circle cx="681.4" cy="150" r="3.2" fill="#C26B7E"/><line x1="685.5" y1="150" x2="685.5" y2="143" stroke="#9CB6C9" stroke-width="2.6" opacity=".85"/><line x1="689.6" y1="150" x2="689.6" y2="96" stroke="#9CB6C9" stroke-width="2.6" opacity=".85"/><line x1="693.7" y1="150" x2="693.7" y2="164" stroke="#F2EAD6" stroke-width="2.6" opacity=".8"/><line x1="697.8" y1="150" x2="697.8" y2="132" stroke="#9CB6C9" stroke-width="2.6" opacity=".85"/><line x1="701.9" y1="150" x2="701.9" y2="167" stroke="#F2EAD6" stroke-width="2.6" opacity=".8"/><line x1="706.0" y1="150" x2="706.0" y2="117" stroke="#9CB6C9" stroke-width="2.6" opacity=".85"/><line x1="710.0" y1="150" x2="710.0" y2="64" stroke="#9CB6C9" stroke-width="2.6" opacity=".85"/><line x1="714.1" y1="150" x2="714.1" y2="135" stroke="#9CB6C9" stroke-width="2.6" opacity=".85"/><line x1="718.2" y1="150" x2="718.2" y2="98" stroke="#9CB6C9" stroke-width="2.6" opacity=".85"/><line x1="722.3" y1="150" x2="722.3" y2="174" stroke="#F2EAD6" stroke-width="2.6" opacity=".8"/><line x1="726.4" y1="150" x2="726.4" y2="242" stroke="#F2EAD6" stroke-width="2.6" opacity=".8"/><line x1="730.5" y1="150" x2="730.5" y2="179" stroke="#F2EAD6" stroke-width="2.6" opacity=".8"/><line x1="734.6" y1="150" x2="734.6" y2="134" stroke="#9CB6C9" stroke-width="2.6" opacity=".85"/><line x1="738.6" y1="150" x2="738.6" y2="112" stroke="#9CB6C9" stroke-width="2.6" opacity=".85"/><line x1="742.7" y1="150" x2="742.7" y2="164" stroke="#F2EAD6" stroke-width="2.6" opacity=".8"/><line x1="746.8" y1="150" x2="746.8" y2="135" stroke="#9CB6C9" stroke-width="2.6" opacity=".85"/><line x1="750.9" y1="150" x2="750.9" y2="167" stroke="#F2EAD6" stroke-width="2.6" opacity=".8"/><line x1="755.0" y1="150" x2="755.0" y2="145" stroke="#9CB6C9" stroke-width="2.6" opacity=".85"/><line x1="759.1" y1="150" x2="759.1" y2="115" stroke="#9CB6C9" stroke-width="2.6" opacity=".85"/><line x1="763.2" y1="150" x2="763.2" y2="145" stroke="#9CB6C9" stroke-width="2.6" opacity=".85"/><line x1="767.2" y1="150" x2="767.2" y2="196" stroke="#F2EAD6" stroke-width="2.6" opacity=".8"/><line x1="771.3" y1="150" x2="771.3" y2="202" stroke="#F2EAD6" stroke-width="2.6" opacity=".8"/><line x1="775.4" y1="150" x2="775.4" y2="151" stroke="#F2EAD6" stroke-width="2.6" opacity=".8"/><line x1="779.5" y1="150" x2="779.5" y2="132" stroke="#9CB6C9" stroke-width="2.6" opacity=".85"/><line x1="783.6" y1="150" x2="783.6" y2="119" stroke="#9CB6C9" stroke-width="2.6" opacity=".85"/><line x1="787.7" y1="150" x2="787.7" y2="125" stroke="#9CB6C9" stroke-width="2.6" opacity=".85"/><line x1="791.8" y1="150" x2="791.8" y2="141" stroke="#9CB6C9" stroke-width="2.6" opacity=".85"/><line x1="795.8" y1="150" x2="795.8" y2="201" stroke="#F2EAD6" stroke-width="2.6" opacity=".8"/><line x1="799.9" y1="150" x2="799.9" y2="155" stroke="#F2EAD6" stroke-width="2.6" opacity=".8"/><line x1="804.0" y1="150" x2="804.0" y2="125" stroke="#9CB6C9" stroke-width="2.6" opacity=".85"/><line x1="808.1" y1="150" x2="808.1" y2="173" stroke="#F2EAD6" stroke-width="2.6" opacity=".8"/><line x1="812.2" y1="150" x2="812.2" y2="129" stroke="#9CB6C9" stroke-width="2.6" opacity=".85"/><line x1="816.3" y1="150" x2="816.3" y2="144" stroke="#9CB6C9" stroke-width="2.6" opacity=".85"/><line x1="820.4" y1="150" x2="820.4" y2="113" stroke="#9CB6C9" stroke-width="2.6" opacity=".85"/><line x1="824.4" y1="150" x2="824.4" y2="105" stroke="#9CB6C9" stroke-width="2.6" opacity=".85"/><line x1="828.5" y1="150" x2="828.5" y2="144" stroke="#9CB6C9" stroke-width="2.6" opacity=".85"/><line x1="832.6" y1="150" x2="832.6" y2="128" stroke="#9CB6C9" stroke-width="2.6" opacity=".85"/><line x1="836.7" y1="150" x2="836.7" y2="176" stroke="#F2EAD6" stroke-width="2.6" opacity=".8"/><line x1="840.8" y1="150" x2="840.8" y2="171" stroke="#F2EAD6" stroke-width="2.6" opacity=".8"/><line x1="844.9" y1="150" x2="844.9" y2="115" stroke="#9CB6C9" stroke-width="2.6" opacity=".85"/><line x1="848.9" y1="150" x2="848.9" y2="177" stroke="#F2EAD6" stroke-width="2.6" opacity=".8"/><line x1="853.0" y1="150" x2="853.0" y2="144" stroke="#9CB6C9" stroke-width="2.6" opacity=".85"/><line x1="857.1" y1="150" x2="857.1" y2="182" stroke="#F2EAD6" stroke-width="2.6" opacity=".8"/><line x1="861.2" y1="150" x2="861.2" y2="200" stroke="#F2EAD6" stroke-width="2.6" opacity=".8"/><line x1="865.3" y1="150" x2="865.3" y2="132" stroke="#9CB6C9" stroke-width="2.6" opacity=".85"/><line x1="869.4" y1="150" x2="869.4" y2="120" stroke="#9CB6C9" stroke-width="2.6" opacity=".85"/><line x1="873.5" y1="150" x2="873.5" y2="165" stroke="#F2EAD6" stroke-width="2.6" opacity=".8"/><line x1="877.5" y1="150" x2="877.5" y2="183" stroke="#F2EAD6" stroke-width="2.6" opacity=".8"/><line x1="881.6" y1="150" x2="881.6" y2="100" stroke="#9CB6C9" stroke-width="2.6" opacity=".85"/><line x1="885.7" y1="150" x2="885.7" y2="181" stroke="#F2EAD6" stroke-width="2.6" opacity=".8"/><line x1="889.8" y1="150" x2="889.8" y2="110" stroke="#9CB6C9" stroke-width="2.6" opacity=".85"/><line x1="893.9" y1="150" x2="893.9" y2="123" stroke="#9CB6C9" stroke-width="2.6" opacity=".85"/><line x1="898.0" y1="150" x2="898.0" y2="130" stroke="#9CB6C9" stroke-width="2.6" opacity=".85"/><line x1="902.1" y1="150" x2="902.1" y2="130" stroke="#9CB6C9" stroke-width="2.6" opacity=".85"/><line x1="906.1" y1="150" x2="906.1" y2="131" stroke="#9CB6C9" stroke-width="2.6" opacity=".85"/><line x1="910.2" y1="150" x2="910.2" y2="134" stroke="#9CB6C9" stroke-width="2.6" opacity=".85"/><line x1="914.3" y1="150" x2="914.3" y2="135" stroke="#9CB6C9" stroke-width="2.6" opacity=".85"/><line x1="918.4" y1="150" x2="918.4" y2="177" stroke="#F2EAD6" stroke-width="2.6" opacity=".8"/><line x1="922.5" y1="150" x2="922.5" y2="99" stroke="#9CB6C9" stroke-width="2.6" opacity=".85"/><line x1="926.6" y1="150" x2="926.6" y2="123" stroke="#9CB6C9" stroke-width="2.6" opacity=".85"/><line x1="930.7" y1="150" x2="930.7" y2="98" stroke="#9CB6C9" stroke-width="2.6" opacity=".85"/><line x1="934.7" y1="150" x2="934.7" y2="217" stroke="#F2EAD6" stroke-width="2.6" opacity=".8"/><line x1="938.8" y1="150" x2="938.8" y2="58" stroke="#9CB6C9" stroke-width="2.6" opacity=".85"/><line x1="942.9" y1="150" x2="942.9" y2="157" stroke="#F2EAD6" stroke-width="2.6" opacity=".8"/><line x1="947.0" y1="150" x2="947.0" y2="87" stroke="#9CB6C9" stroke-width="2.6" opacity=".85"/><line x1="951.1" y1="150" x2="951.1" y2="132" stroke="#9CB6C9" stroke-width="2.6" opacity=".85"/><line x1="955.2" y1="150" x2="955.2" y2="242" stroke="#F2EAD6" stroke-width="2.6" opacity=".8"/><line x1="959.3" y1="150" x2="959.3" y2="165" stroke="#F2EAD6" stroke-width="2.6" opacity=".8"/><line x1="963.3" y1="150" x2="963.3" y2="217" stroke="#F2EAD6" stroke-width="2.6" opacity=".8"/><line x1="967.4" y1="150" x2="967.4" y2="142" stroke="#9CB6C9" stroke-width="2.6" opacity=".85"/><line x1="971.5" y1="150" x2="971.5" y2="149" stroke="#9CB6C9" stroke-width="2.6" opacity=".85"/><line x1="975.6" y1="150" x2="975.6" y2="168" stroke="#F2EAD6" stroke-width="2.6" opacity=".8"/><line x1="979.7" y1="150" x2="979.7" y2="118" stroke="#9CB6C9" stroke-width="2.6" opacity=".85"/><line x1="983.8" y1="150" x2="983.8" y2="216" stroke="#F2EAD6" stroke-width="2.6" opacity=".8"/><line x1="987.9" y1="150" x2="987.9" y2="190" stroke="#F2EAD6" stroke-width="2.6" opacity=".8"/><line x1="991.9" y1="150" x2="991.9" y2="172" stroke="#F2EAD6" stroke-width="2.6" opacity=".8"/><line x1="996.0" y1="150" x2="996.0" y2="172" stroke="#F2EAD6" stroke-width="2.6" opacity=".8"/><line x1="1000.1" y1="150" x2="1000.1" y2="129" stroke="#9CB6C9" stroke-width="2.6" opacity=".85"/><line x1="1004.2" y1="150" x2="1004.2" y2="122" stroke="#9CB6C9" stroke-width="2.6" opacity=".85"/><line x1="1008.3" y1="150" x2="1008.3" y2="103" stroke="#9CB6C9" stroke-width="2.6" opacity=".85"/><line x1="1012.4" y1="150" x2="1012.4" y2="200" stroke="#F2EAD6" stroke-width="2.6" opacity=".8"/><line x1="1016.5" y1="150" x2="1016.5" y2="199" stroke="#F2EAD6" stroke-width="2.6" opacity=".8"/><line x1="1020.5" y1="150" x2="1020.5" y2="194" stroke="#F2EAD6" stroke-width="2.6" opacity=".8"/><line x1="1024.6" y1="150" x2="1024.6" y2="176" stroke="#F2EAD6" stroke-width="2.6" opacity=".8"/><line x1="1028.7" y1="150" x2="1028.7" y2="167" stroke="#F2EAD6" stroke-width="2.6" opacity=".8"/><line x1="1032.8" y1="150" x2="1032.8" y2="95" stroke="#9CB6C9" stroke-width="2.6" opacity=".85"/><line x1="1036.9" y1="150" x2="1036.9" y2="129" stroke="#9CB6C9" stroke-width="2.6" opacity=".85"/><line x1="1041.0" y1="150" x2="1041.0" y2="166" stroke="#F2EAD6" stroke-width="2.6" opacity=".8"/><line x1="1045.1" y1="150" x2="1045.1" y2="188" stroke="#F2EAD6" stroke-width="2.6" opacity=".8"/><line x1="1049.1" y1="150" x2="1049.1" y2="181" stroke="#F2EAD6" stroke-width="2.6" opacity=".8"/><line x1="1053.2" y1="150" x2="1053.2" y2="164" stroke="#F2EAD6" stroke-width="2.6" opacity=".8"/><line x1="1057.3" y1="150" x2="1057.3" y2="219" stroke="#F2EAD6" stroke-width="2.6" opacity=".8"/><line x1="1061.4" y1="150" x2="1061.4" y2="167" stroke="#F2EAD6" stroke-width="2.6" opacity=".8"/><line x1="1065.5" y1="150" x2="1065.5" y2="136" stroke="#9CB6C9" stroke-width="2.6" opacity=".85"/><line x1="1069.6" y1="150" x2="1069.6" y2="161" stroke="#F2EAD6" stroke-width="2.6" opacity=".8"/><line x1="1073.7" y1="150" x2="1073.7" y2="129" stroke="#9CB6C9" stroke-width="2.6" opacity=".85"/><line x1="1077.7" y1="150" x2="1077.7" y2="172" stroke="#F2EAD6" stroke-width="2.6" opacity=".8"/><line x1="1081.8" y1="150" x2="1081.8" y2="168" stroke="#F2EAD6" stroke-width="2.6" opacity=".8"/><line x1="1085.9" y1="150" x2="1085.9" y2="167" stroke="#F2EAD6" stroke-width="2.6" opacity=".8"/><line x1="1090.0" y1="150" x2="1090.0" y2="172" stroke="#F2EAD6" stroke-width="2.6" opacity=".8"/><text x="69" y="288" fill="rgba(242,234,214,.5)" font-size="11">1900</text><text x="281" y="288" fill="rgba(242,234,214,.5)" font-size="11">1920</text><text x="440" y="288" fill="rgba(242,234,214,.5)" font-size="11">1940</text><text x="583" y="288" fill="rgba(242,234,214,.5)" font-size="11">1960</text><text x="759" y="288" fill="rgba(242,234,214,.5)" font-size="11">1980</text><text x="935" y="288" fill="rgba(242,234,214,.5)" font-size="11">2000</text><text x="1090" y="288" fill="rgba(242,234,214,.5)" font-size="11">2020</text><text x="40" y="26" fill="#9CB6C9" font-size="12" letter-spacing="2">▲ CARLTON WINS: 127</text><text x="40" y="266" fill="#F2EAD6" font-size="12" letter-spacing="2">▼ COLLINGWOOD WINS: 127</text><text x="933" y="46" fill="#F2EAD6" font-size="11" letter-spacing="1" text-anchor="end" transform="rotate(-0.8 932.8326848249027 46)">BIGGEST EVER: 111 POINTS, 2000</text><text x="565" y="154" fill="#C26B7E" font-size="10" letter-spacing="1" text-anchor="middle" opacity="0">.</text></svg>